<?xml version="1.0" standalone="no"?>
<!DOCTYPE svg PUBLIC "-//W3C//DTD SVG 20010904//EN"
 "http://www.w3.org/TR/2001/REC-SVG-20010904/DTD/svg10.dtd">
<svg version="1.0" xmlns="http://www.w3.org/2000/svg"
 width="1024.000000pt" height="1024.000000pt" viewBox="0 0 1024.000000 1024.000000"
 preserveAspectRatio="xMidYMid meet">

<g transform="translate(0.000000,1024.000000) scale(0.100000,-0.100000)"
fill="#000000" stroke="none">
<path d="M0 5120 l0 -5120 5120 0 5120 0 0 5120 0 5120 -5120 0 -5120 0 0
-5120z m5755 2980 c560 -39 1037 -181 1460 -438 76 -45 218 -143 235 -162 3
-3 37 -31 75 -62 109 -87 350 -345 397 -423 4 -5 -53 19 -127 56 -270 133
-570 215 -997 273 -116 16 -244 42 -348 69 -185 50 -338 79 -545 104 -123 14
-295 17 -1382 20 l-1243 4 0 -1769 0 -1769 -97 -6 c-54 -4 -178 -7 -276 -7
l-177 0 0 2060 0 2060 1438 0 c869 0 1496 -4 1587 -10z m980 -1010 c640 -50
1058 -257 1329 -658 308 -457 388 -1177 211 -1917 -178 -747 -591 -1384 -1161
-1791 -437 -311 -935 -484 -1539 -534 -82 -7 -627 -12 -1485 -13 l-1355 -2 -3
398 -3 397 276 0 275 0 0 -125 0 -125 788 1 c1248 1 1516 11 1823 74 707 144
1259 572 1588 1232 185 371 277 740 288 1160 6 238 -5 377 -43 537 -60 245
-136 390 -279 532 -166 165 -380 254 -685 283 -56 5 -738 7 -1642 3 l-1548 -5
0 276 0 277 258 2 c865 9 2782 8 2907 -2z m-4265 -340 l0 -290 -85 0 -85 0 0
-1356 0 -1356 1503 5 c1557 4 1586 5 1846 48 337 56 547 167 735 389 215 254
331 567 343 922 11 317 -53 579 -200 826 -64 108 -194 271 -265 333 l-42 37
187 7 c201 8 395 -3 493 -30 63 -16 84 -37 165 -160 70 -106 106 -180 149
-304 166 -475 104 -1134 -152 -1611 -287 -537 -719 -835 -1377 -950 -264 -46
-369 -49 -2197 -56 l-1728 -7 0 1921 0 1922 355 0 355 0 0 -290z"/>
</g>
</svg>
