<?xml version="1.0" standalone="no"?>
<!DOCTYPE svg PUBLIC "-//W3C//DTD SVG 20010904//EN"
 "http://www.w3.org/TR/2001/REC-SVG-20010904/DTD/svg10.dtd">
<svg version="1.0" xmlns="http://www.w3.org/2000/svg"
 width="1024.000000pt" height="1024.000000pt" viewBox="0 0 1024.000000 1024.000000"
 preserveAspectRatio="xMidYMid meet">

<g transform="translate(0.000000,1024.000000) scale(0.100000,-0.100000)"
fill="#000000" stroke="none">
<path d="M2730 6040 l0 -2060 275 0 275 0 0 1781 0 1780 1253 -4 c848 -3 1281
-8 1342 -15 299 -38 502 -76 670 -127 113 -35 155 -43 360 -70 315 -43 649
-142 918 -275 56 -27 102 -48 104 -47 6 6 -145 188 -221 266 -471 483 -1134
764 -1941 821 -82 6 -735 10 -1587 10 l-1448 0 0 -2060z"/>
<path d="M3577 7102 c-15 -3 -17 -30 -17 -289 l0 -285 1643 3 c1265 2 1658 0
1712 -10 360 -63 638 -304 763 -662 106 -303 117 -681 31 -1103 -160 -782
-587 -1405 -1179 -1719 -286 -152 -590 -245 -960 -293 -107 -15 -279 -18
-1212 -21 l-1088 -4 0 125 0 126 -270 0 -270 0 0 -400 0 -400 1334 0 c827 0
1382 4 1462 10 700 56 1313 299 1778 704 479 417 834 1025 980 1678 66 296 94
616 76 883 -23 333 -72 542 -186 784 -206 437 -551 700 -1059 810 -267 58
-152 55 -1906 61 -888 3 -1623 4 -1632 2z"/>
<path d="M1760 5120 l0 -1921 1793 4 c1295 3 1818 7 1887 16 364 45 601 110
845 231 183 92 303 178 451 325 364 361 565 880 566 1460 0 378 -90 694 -268
936 -87 117 -88 118 -189 130 -98 12 -497 14 -582 3 l-52 -6 85 -81 c210 -199
352 -459 410 -752 25 -125 25 -429 0 -570 -80 -446 -312 -786 -662 -971 -170
-89 -389 -143 -674 -164 -82 -6 -713 -10 -1602 -10 l-1468 0 0 1350 0 1350 80
0 80 0 0 295 0 295 -350 0 -350 0 0 -1920z"/>
</g>
</svg>
