<svg xmlns="http://www.w3.org/2000/svg" viewBox="0 0 256 256">
  <rect fill="#2D5F8B" width="256" height="256" rx="28"/>
  <path fill="#ffffff" d="M128 30c-54.124 0-98 43.876-98 98s43.876 98 98 98 98-43.876 98-98-43.876-98-98-98zm0 176c-43.078 0-78-34.922-78-78s34.922-78 78-78 78 34.922 78 78-34.922 78-78 78z"/>
  <circle fill="#ffffff" cx="128" cy="128" r="25"/>
  <path fill="#ffffff" d="M128 75c-29.271 0-53 23.729-53 53s23.729 53 53 53 53-23.729 53-53-23.729-53-53-53zm0 86c-18.225 0-33-14.775-33-33s14.775-33 33-33 33 14.775 33 33-14.775 33-33 33z"/>
</svg>

