<svg xmlns="http://www.w3.org/2000/svg" viewBox="0 0 256 153">
  <path d="M72.392 55.438c0 3.137.34 5.68.933 7.545a45.373 45.373 0 0 0 2.712 6.103c.424.678.593 1.356.593 1.95 0 .847-.508 1.695-1.61 2.543l-5.34 3.56c-.763.509-1.526.763-2.205.763-.847 0-1.695-.424-2.543-1.187a26.224 26.224 0 0 1-3.052-3.984c-.848-1.44-1.696-3.052-2.628-5.001-6.612 7.798-14.921 11.698-24.927 11.698-7.12 0-12.8-2.035-16.954-6.103-4.153-4.07-6.272-9.495-6.272-16.276 0-7.205 2.543-13.054 7.714-17.462 5.17-4.407 12.037-6.612 20.768-6.612 2.882 0 5.849.254 8.985.678 3.137.424 6.358 1.102 9.749 1.865V29.33c0-6.442-1.356-10.935-3.984-13.562-2.712-2.628-7.29-3.9-13.817-3.9-2.967 0-6.018.34-9.155 1.103-3.136.762-6.188 1.695-9.155 2.882-.593.254-1.187.424-1.695.593-.508.085-.932.17-1.271.17-1.102 0-1.695-.764-1.695-2.374v-4.154c0-1.187.17-2.119.593-2.712.424-.593 1.187-1.187 2.374-1.78 2.967-1.526 6.527-2.798 10.68-3.815 4.154-1.102 8.561-1.61 13.223-1.61 10.088 0 17.463 2.29 22.21 6.866 4.662 4.577 7.035 11.528 7.035 20.853v27.464h.085zM37.3 68.238c2.798 0 5.68-.508 8.731-1.526 3.052-1.017 5.764-2.882 8.053-5.425 1.356-1.61 2.374-3.39 2.882-5.425.509-2.035.848-4.493.848-7.376v-3.56a70.791 70.791 0 0 0-7.799-1.441c-2.713-.34-5.34-.508-7.968-.508-5.68 0-9.834 1.102-12.627 3.39-2.798 2.289-4.154 5.51-4.154 9.749 0 3.984 1.017 6.951 3.136 8.986 2.035 2.119 5.002 3.136 8.898 3.136zm68.069 9.155c-1.44 0-2.374-.254-2.967-.848-.593-.508-1.102-1.695-1.525-3.305l-17.04-56.051c-.424-1.44-.593-2.374-.593-2.883 0-1.187.593-1.78 1.78-1.78h8.307c1.526 0 2.543.254 3.052.847.594.508 1.017 1.695 1.44 3.306l12.206 48.083 11.358-48.083c.34-1.695.763-2.798 1.357-3.306.593-.508 1.695-.847 3.136-.847h6.781c1.525 0 2.543.254 3.136.847.593.508 1.102 1.695 1.356 3.306l11.528 48.676 12.545-48.676c.424-1.695.933-2.798 1.44-3.306.594-.508 1.611-.847 3.053-.847h7.883c1.187 0 1.865.508 1.865 1.78 0 .34-.085.678-.17 1.102-.085.424-.254 1.017-.508 1.78l-17.464 56.052c-.423 1.695-.932 2.797-1.525 3.305-.593.509-1.61.848-2.967.848h-7.29c-1.526 0-2.544-.254-3.137-.848-.593-.593-1.102-1.695-1.356-3.39L124.07 24.922l-11.274 46.558c-.339 1.695-.763 2.797-1.356 3.39-.593.594-1.696.848-3.137.848H101.37zm108.927 2.289c-4.408 0-8.816-.509-13.054-1.526-4.239-1.017-7.544-2.12-9.749-3.39-1.356-.763-2.289-1.61-2.628-2.373-.339-.764-.509-1.611-.509-2.374v-4.323c0-1.61.679-2.374 1.95-2.374.509 0 1.017.085 1.526.254.509.17 1.271.509 2.12.848 2.881 1.271 6.017 2.289 9.324 2.967a43.87 43.87 0 0 0 10.089 1.187c5.34 0 9.494-.932 12.376-2.797 2.882-1.865 4.408-4.577 4.408-8.053 0-2.373-.763-4.323-2.289-5.934-1.526-1.61-4.408-3.052-8.561-4.408l-12.291-3.815c-6.188-1.95-10.765-4.832-13.478-8.646-2.712-3.73-4.069-7.883-4.069-12.291 0-3.56.763-6.697 2.289-9.41 1.525-2.713 3.56-5.086 6.103-6.95 2.543-1.95 5.425-3.392 8.816-4.409 3.39-1.017 6.95-1.44 10.68-1.44 1.865 0 3.815.085 5.68.339 1.95.254 3.73.593 5.51.932 1.695.424 3.306.848 4.832 1.357 1.525.508 2.712 1.017 3.56 1.525.932.509 1.61 1.017 2.035 1.611.424.509.593 1.187.593 2.035v4c0 1.61-.678 2.458-1.949 2.458-.679 0-1.78-.339-3.221-.932-4.832-2.204-10.257-3.306-16.276-3.306-4.832 0-8.646.763-11.274 2.374-2.627 1.61-3.984 4.069-3.984 7.544 0 2.374.848 4.408 2.543 6.019 1.696 1.61 4.832 3.221 9.325 4.662l12.037 3.815c6.103 1.95 10.511 4.662 13.139 8.138 2.627 3.475 3.899 7.46 3.899 11.868 0 3.645-.763 6.951-2.204 9.833-1.526 2.882-3.56 5.425-6.188 7.46-2.628 2.12-5.764 3.645-9.41 4.747-3.814 1.187-7.798 1.78-12.122 1.78z" fill="#252F3E"/>
  <path d="M230.993 120.964c-27.888 20.599-68.408 31.534-103.247 31.534-48.827 0-92.821-18.056-126.05-48.064-2.628-2.374-.254-5.594 2.882-3.73 35.942 20.854 80.276 33.484 126.135 33.484 30.94 0 64.932-6.442 96.212-19.666 4.662-2.12 8.646 3.052 4.068 6.442z" fill="#FF9900"/>
  <path d="M242.605 107.656c-3.56-4.577-23.566-2.204-32.636-1.102-2.713.339-3.137-2.035-.678-3.815 15.939-11.189 42.13-7.968 45.182-4.239 3.052 3.815-.848 30.008-15.769 42.554-2.289 1.95-4.493.933-3.475-1.61 3.39-8.393 10.935-27.296 7.376-31.788z" fill="#FF9900"/>
</svg>

