<svg xmlns="http://www.w3.org/2000/svg" viewBox="0 0 256 256">
  <rect fill="#092E20" width="256" height="256" rx="28"/>
  <path fill="#ffffff" d="M186.377 94.198v86.907c0 17.906-1.314 26.498-5.259 33.92-3.665 7.06-8.475 11.53-18.443 16.33l-26.776-12.728c9.969-4.528 14.779-8.652 17.879-14.927 3.256-6.48 4.293-13.972 4.293-34.118V94.198h28.306zM158.07 58.135v24.312h-28.306V58.135h28.306zm28.307 0v24.312h-28.306V58.135h28.306zM69.623 127.478c0-22.756 11.015-35.135 34.05-38.325 6.552-.906 13.102-1.236 26.34-1.236v23.708c-10.172 0-14.612.258-18.72.986-8.678 1.485-12.345 5.527-12.345 13.666v45.388H69.623v-44.187z"/>
</svg>

