<svg xmlns="http://www.w3.org/2000/svg" viewBox="0 0 256 185">
  <g fill="#2396ED">
    <path d="M250.716 70.497c-5.298-3.533-17.478-4.72-26.895-3.004-1.24-8.974-6.31-16.77-15.4-23.832l-5.253-3.532-3.533 5.254c-4.47 6.784-6.784 16.2-6.06 25.377.236 3.298 1.184 9.193 4.483 14.448-3.14 1.69-9.381 4.013-17.598 3.86H.039l-.115.927C-.544 99.68 2.502 127.104 16.492 149.157c10.604 16.73 26.538 25.227 47.338 25.227 45.092 0 78.46-20.783 94.189-58.53 6.156.118 19.393.07 26.184-13.06.176-.302 1.894-3.823 5.756-12.427l2.107-4.85-4.94-3.3-35.41-23.72z"/>
    <path d="M56.484 20.716h36.89v33.72h-36.89v-33.72z"/>
    <path d="M56.484 58.37h36.89v33.72h-36.89V58.37zM97.308 20.716h36.89v33.72h-36.89v-33.72z"/>
    <path d="M97.308 58.37h36.89v33.72h-36.89V58.37zM138.132 58.37h36.89v33.72h-36.89V58.37z"/>
    <path d="M178.956 58.37h36.89v33.72h-36.89V58.37zM15.66 58.37h36.89v33.72h-36.89V58.37z"/>
  </g>
</svg>

