<svg xmlns="http://www.w3.org/2000/svg" viewBox="0 0 256 249">
  <path fill="#326CE5" d="M128.003 0L11.815 66.428v116.861l116.188 66.428 116.187-66.428V66.428L128.003 0z"/>
  <path fill="#fff" d="M128.003 29.306c-2.39 0-4.343 1.952-4.343 4.343v24.407a64.788 64.788 0 0 0-8.654 1.434L97.143 38.54a4.344 4.344 0 0 0-5.939-1.586l-.015.008a4.344 4.344 0 0 0-1.578 5.932l17.864 20.951a64.788 64.788 0 0 0-6.937 5.413L79.485 55.84a4.344 4.344 0 0 0-6.129.306l-.009.01a4.344 4.344 0 0 0 .316 6.12l21.053 13.419a64.788 64.788 0 0 0-4.666 7.466l-24.403-3.993a4.344 4.344 0 0 0-4.944 3.64l-.005.03a4.344 4.344 0 0 0 3.67 4.914l24.403 3.993a64.788 64.788 0 0 0-1.206 8.728h-24.56a4.344 4.344 0 0 0-4.343 4.343v.018a4.344 4.344 0 0 0 4.343 4.343h24.56c.182 2.96.564 5.873 1.206 8.728l-24.403 3.993a4.344 4.344 0 0 0-3.67 4.914l.005.03a4.344 4.344 0 0 0 4.944 3.64l24.403-3.993a64.788 64.788 0 0 0 4.666 7.466l-21.053 13.419a4.344 4.344 0 0 0-.316 6.12l.009.01a4.344 4.344 0 0 0 6.129.306l21.053-13.418a64.788 64.788 0 0 0 6.937 5.413l-17.864 20.951a4.344 4.344 0 0 0 1.578 5.932l.015.008a4.344 4.344 0 0 0 5.939-1.586l17.864-20.95a64.788 64.788 0 0 0 8.654 1.434v24.406a4.344 4.344 0 0 0 4.343 4.343h.017a4.344 4.344 0 0 0 4.343-4.343v-24.406a64.788 64.788 0 0 0 8.654-1.434l17.864 20.95a4.344 4.344 0 0 0 5.939 1.586l.015-.008a4.344 4.344 0 0 0 1.578-5.932l-17.864-20.951a64.788 64.788 0 0 0 6.937-5.413l21.053 13.418a4.344 4.344 0 0 0 6.129-.306l.009-.01a4.344 4.344 0 0 0-.316-6.12l-21.053-13.419a64.788 64.788 0 0 0 4.666-7.466l24.403 3.993a4.344 4.344 0 0 0 4.944-3.64l.005-.03a4.344 4.344 0 0 0-3.67-4.914l-24.403-3.993a64.788 64.788 0 0 0 1.206-8.728h24.56a4.344 4.344 0 0 0 4.343-4.343v-.018a4.344 4.344 0 0 0-4.343-4.343h-24.56a64.788 64.788 0 0 0-1.206-8.728l24.403-3.993a4.344 4.344 0 0 0 3.67-4.914l-.005-.03a4.344 4.344 0 0 0-4.944-3.64l-24.403 3.993a64.788 64.788 0 0 0-4.666-7.466l21.053-13.419a4.344 4.344 0 0 0 .316-6.12l-.009-.01a4.344 4.344 0 0 0-6.129-.306l-21.053 13.418a64.788 64.788 0 0 0-6.937-5.413l17.864-20.951a4.344 4.344 0 0 0-1.578-5.932l-.015-.008a4.344 4.344 0 0 0-5.939 1.586l-17.864 20.95a64.788 64.788 0 0 0-8.654-1.434V33.649a4.344 4.344 0 0 0-4.343-4.343h-.017zm0 58.88a36.528 36.528 0 0 1 36.528 36.528 36.528 36.528 0 0 1-36.528 36.528 36.528 36.528 0 0 1-36.528-36.528 36.528 36.528 0 0 1 36.528-36.528z"/>
</svg>

