<svg xmlns="http://www.w3.org/2000/svg" viewBox="0 0 256 549">
  <path fill="#01EC64" d="M175.622 61.108C152.612 33.807 132.797 6.078 128.749.32a1.03 1.03 0 0 0-1.492 0c-4.048 5.759-23.863 33.487-46.874 60.788-197.507 251.896 31.108 421.89 31.108 421.89l1.917 1.28c1.704 26.234 5.966 63.988 5.966 63.988h17.045s4.26-37.54 5.965-63.987l1.918-1.494c.213.214 228.828-169.78 31.32-421.677z"/>
  <path fill="#B8C4C2" d="M128.075 481.407s-4.26-3.197-6.606-5.111l-1.066-.852c-1.063-.852-1.704-1.917-1.704-3.193V403.15c.425-.213.852-.213 1.277-.426h.213c.852-.213 1.704-.426 2.556-.64.853-.212 1.704-.425 2.557-.638 1.703-.426 3.407-1.065 5.111-1.704 1.064-.426 2.129-.852 3.193-1.278 1.278-.425 2.343-.851 3.407-1.277l1.917-.852c1.278-.426 2.343-1.065 3.62-1.49.427-.214.853-.427 1.278-.64l.639-.213c.426-.213.853-.426 1.278-.64 1.704-.852 3.407-1.703 5.111-2.556.426-.213.852-.426 1.278-.64.425-.212.852-.425 1.277-.638.426-.213 1.065-.426 1.491-.64.426-.212.853-.425 1.065-.638 1.278-.639 2.556-1.278 3.62-1.917.213-.213.64-.426.852-.639.427-.213.64-.426 1.065-.639l.852-.425c.213-.213.426-.213.64-.426.425-.213.852-.426 1.277-.64l.426-.212c.426-.213.64-.426 1.065-.64.213-.212.426-.425.64-.425.212-.213.638-.426.851-.639l.426-.213c.213-.213.426-.213.64-.426l.426-.213.638-.426c.213-.212.426-.212.64-.425l.426-.213.638-.426c.213-.213.426-.213.64-.426l.425-.213.426-.426c.213-.212.213-.212.426-.425.213-.213.426-.213.64-.426l.425-.213.64-.426.426-.213.638-.425.426-.426.426-.426.426-.213c.213-.213.426-.213.426-.426l.425-.213.426-.426.426-.213.426-.426c.213-.212.426-.212.426-.425l.425-.426.426-.213.426-.426.213-.212.426-.426.426-.213.213-.213.426-.426c.213-.213.213-.213.426-.426l.212-.213.64-.639.212-.213.426-.426.213-.213.213-.213.426-.425.213-.214c.212-.212.212-.425.425-.638.213-.213.213-.426.426-.64v-.212l.213-.213.213-.426.213-.213.213-.213.213-.426c.213-.212.213-.425.426-.638l.213-.213.213-.213c.213-.213.213-.426.426-.64l.213-.212.213-.426c.213-.213.213-.213.213-.426l.213-.213c.213-.213.213-.426.426-.64l.213-.212c.212-.213.212-.426.425-.64l.213-.212c0-.213.213-.426.213-.426.213-.214.213-.426.426-.64l.213-.212c0-.213.213-.426.213-.426.213-.213.213-.426.426-.64l.213-.212c0-.213.213-.426.213-.426l.213-.213c.213-.213.213-.426.426-.64l.213-.212c0-.213.213-.426.213-.426.213-.214.213-.426.426-.64l.213-.212c0-.213.213-.426.213-.426l.213-.213.213-.213.213-.426c.213-.213.213-.426.426-.64l.213-.212c0-.213.213-.426.213-.426.213-.214.213-.426.426-.64l.213-.212s.213-.426.213-.64c0-.212.213-.212.213-.425.213-.213.213-.426.426-.64l.213-.212c0-.213.213-.426.213-.426.213-.213.213-.426.426-.64l.213-.212c.213-.213.213-.426.426-.639 0-.213.213-.213.213-.426s.213-.426.213-.64c0-.212.213-.212.213-.425l.213-.213c.213-.213.213-.426.426-.64 0-.212.213-.212.213-.425s.213-.426.213-.639c0-.213.213-.213.213-.426s.213-.426.213-.639c0-.213.213-.213.213-.426s.213-.426.213-.639v-.213c0-.212.213-.425.213-.425l.213-.213c0-.213 0-.426.213-.64 0-.212.213-.212.213-.425s0-.426.213-.639v-.213c0-.213.213-.426.213-.426l.213-.213v-.426c0-.213 0-.426.213-.639l.213-.426V332.26c0-.213.213-.426.213-.64l.213-.212v-.852c.213-.213.213-.426.213-.64v-.212-.64c.213-.212.213-.425.213-.638v-.426c.213-.213.213-.426.213-.64v-.212-.213c.213-.213.213-.426.213-.64v-.212c.213-.213.213-.426.213-.64V322.34c.213-.213.213-.426.213-.64 0-.212 0-.638.213-.851.213-.426.213-.853.213-1.065v-.213c.213-.213.213-.639.213-.852v-.426c.213-.213.213-.639.213-.852v-.213c.213-.213.213-.64.213-.852v-.213c.213-.213.213-.639.213-.852l.213-.426c.213-.426.213-.639.213-1.065v-.213c.213-.213.213-.64.213-.852l.213-.426c.213-.426.213-.64.213-1.065v-.213c.213-.213.213-.64.213-.853.213-.212.213-.425.213-.638v-.426c.213-.213.213-.64.426-.852v-.213c.213-.213.213-.64.213-.853.213-.213.213-.425.213-.638v-.213c.213-.213.213-.426.213-.64.213-.212.213-.425.426-.638v-.213c.213-.213.213-.426.213-.64.213-.212.213-.425.426-.638v-.213c.213-.213.213-.426.213-.64.213-.212.213-.425.426-.638v-.213c.213-.213.213-.426.426-.64.213-.212.213-.425.426-.638v-.213c.213-.213.213-.426.426-.64.213-.212.213-.425.426-.638.213-.214.213-.426.426-.64.213-.212.213-.425.426-.638l.213-.213c.213-.213.213-.426.426-.64.213-.212.213-.425.426-.638l.213-.213c.213-.213.426-.426.426-.64.213-.212.213-.425.426-.638l.213-.213c.213-.213.426-.426.426-.64.213-.212.426-.425.426-.638l.213-.213c.213-.213.426-.426.426-.64l.426-.638.426-.426c.213-.213.426-.426.426-.64l.426-.638.426-.426c.213-.213.426-.426.426-.64.213-.212.426-.425.639-.638.213-.213.426-.426.426-.64.213-.212.426-.425.426-.638.213-.213.426-.426.639-.64.213-.212.426-.425.426-.638l.426-.426c.213-.213.426-.426.639-.64.213-.212.426-.425.639-.638.213-.213.426-.426.639-.64.213-.212.426-.425.639-.638.213-.213.426-.426.639-.64.213-.212.426-.425.639-.638l.639-.64c.213-.212.426-.425.639-.638.213-.213.426-.426.639-.64.213-.212.639-.425.852-.638l.639-.64c.213-.212.639-.425.852-.638.213-.213.639-.426.852-.64l.852-.638.852-.64c.213-.212.64-.425.852-.638l.852-.64.853-.638.852-.64.852-.638.852-.64.852-.638c.213-.213.64-.426.853-.64l.852-.638.852-.64.852-.638.852-.64.853-.638c.212-.213.638-.426.851-.64l.853-.638c.212-.213.638-.426.851-.64l.853-.638c.212-.213.638-.426.851-.64l.853-.638c.212-.213.638-.426.851-.64l.853-.638.852-.64c.213-.212.639-.425.852-.638l.852-.64c.213-.212.639-.425.852-.638l.852-.64c.213-.212.639-.425.852-.638l.852-.64c.213-.212.639-.425.852-.638l.852-.64c.213-.212.64-.425.852-.638l.852-.64c.213-.212.64-.425.853-.638l.852-.64c.213-.212.64-.425.852-.638l.853-.64c.212-.212.638-.425.851-.638l.853-.64c.212-.212.638-.425.851-.638l.853-.64c.212-.212.638-.425.851-.638l.853-.64.851-.638.853-.64.851-.638.853-.64.851-.638.853-.64.851-.638.853-.64.851-.638.853-.64c.212-.212.638-.425.851-.638l.853-.64.851-.638.853-.64c.212-.212.638-.425.851-.638.213-.213.64-.426.853-.64l.851-.638c.213-.213.64-.426.853-.639l.851-.639c.213-.212.64-.425.853-.639l.851-.638c.213-.213.64-.426.853-.639l.851-.639c.213-.212.64-.426.853-.639l.851-.638c.213-.213.64-.426.853-.639l.851-.639c.213-.212.64-.426.853-.639l.851-.638c.213-.213.64-.426.853-.639l.852-.639c.212-.212.638-.425.851-.638l.853-.64c.212-.212.638-.425.851-.638l.853-.64c.212-.212.638-.425.851-.638l.853-.64c.212-.212.638-.425.851-.638l.853-.64c.212-.212.638-.425.851-.638l.853-.64c.212-.212.639-.425.852-.638l.852-.64c.213-.212.639-.425.852-.638l.852-.64c.213-.212.639-.425.852-.638l.852-.64c.213-.212.639-.425.852-.638l.852-.64c.213-.212.64-.425.852-.638l.852-.64c.213-.212.64-.425.853-.638l.852-.64c.213-.212.639-.425.852-.638.213-.213.639-.426.852-.64.213-.212.639-.425.852-.638.213-.213.639-.426.852-.64l.852-.638c.213-.213.639-.426.852-.64.213-.212.639-.425.852-.638.213-.213.639-.426.852-.64.213-.212.639-.425.852-.638.213-.213.64-.426.852-.64.213-.212.64-.425.853-.638l.852-.64c.213-.212.639-.425.852-.638.213-.213.639-.426.852-.64.213-.212.64-.425.852-.638l.426-.426c.213-.213.639-.426.852-.64.213-.212.426-.425.639-.638l.426-.426c.213-.213.639-.426.852-.64.213-.212.426-.425.639-.638l.426-.426c.213-.213.639-.426.852-.64.213-.212.426-.425.639-.638.213-.213.426-.426.639-.64.213-.212.426-.425.639-.638.213-.213.426-.426.639-.64.213-.212.426-.425.426-.638.213-.213.426-.426.639-.64l.426-.638c.213-.213.426-.426.639-.64l.426-.638c.213-.213.426-.426.426-.64l.426-.638c.213-.213.426-.426.426-.64l.426-.638c.213-.213.426-.426.426-.64l.426-.638c.213-.213.426-.426.426-.64l.426-.638.426-.64c.213-.212.213-.425.426-.638l.213-.214c.213-.212.213-.425.426-.638.213-.213.213-.426.426-.64l.213-.212c.213-.213.213-.426.426-.64.213-.212.213-.425.426-.638l.213-.213c.213-.213.213-.426.213-.64.213-.212.213-.425.426-.638l.213-.213c0-.213.213-.426.213-.64.213-.212.213-.425.426-.638v-.213c0-.213.213-.426.213-.64.213-.212.213-.425.426-.638v-.213c0-.213.213-.426.213-.64.213-.212.213-.425.213-.638v-.213-.64c.213-.212.213-.425.213-.638v-.213-.64c0-.212.213-.425.213-.638v-.426-.639-.639-.425c0-.213-.213-.426-.213-.64v-.425c0-.213-.213-.426-.213-.64v-.638-.213c-.213-.212-.213-.425-.213-.638l-.213-.64-.213-.212c0-.213-.213-.426-.213-.64l-.213-.212c-.213-.213-.213-.426-.213-.64l-.213-.212c-.213-.213-.213-.426-.426-.64l-.213-.212c-.213-.213-.213-.426-.426-.64l-.213-.212c-.213-.213-.426-.426-.426-.64l-.213-.212c-.213-.213-.426-.426-.426-.64l-.426-.425c-.213-.213-.426-.426-.426-.64l-.426-.425c-.213-.213-.426-.426-.639-.64l-.426-.425c-.213-.213-.426-.426-.639-.64l-.426-.425c-.213-.213-.426-.426-.639-.64l-.426-.425-.639-.64c-.213-.213-.426-.426-.639-.64l-.426-.425-.639-.64-.639-.638-.639-.64c-.213-.212-.426-.425-.639-.638l-.426-.213c-.213-.213-.426-.426-.639-.64-.213-.212-.426-.425-.639-.638l-.426-.213c-.213-.213-.426-.426-.852-.64-.213-.212-.426-.425-.639-.638l-.639-.213c-.426-.213-.639-.426-1.065-.64-.213-.212-.426-.425-.639-.638-.213-.213-.639-.213-1.065-.426-.213-.213-.426-.426-.852-.64-.426-.212-.639-.425-1.065-.638-.213-.213-.426-.426-.852-.64-.426-.212-.639-.425-1.065-.638-.213-.213-.64-.213-1.066-.426-.212-.213-.425-.426-.851-.64-.426-.212-.64-.425-1.066-.638-.212-.213-.425-.213-.638-.426-.426-.213-.639-.426-1.065-.639-.426-.213-.64-.426-1.066-.64-.212-.212-.425-.212-.638-.425-.426-.213-.639-.426-1.065-.639-.426-.213-.852-.426-1.278-.64l-.639-.425-.851-.426c-.427-.213-.853-.426-1.278-.64l-.64-.425-.851-.426c-.426-.213-.853-.426-1.278-.64l-.639-.425c-.213 0-.426-.213-.64-.213-.425-.213-.851-.426-1.277-.64-.426-.212-.852-.425-1.278-.638-.212-.213-.425-.213-.639-.213-.425-.213-.638-.213-1.064-.426-.426-.213-.852-.426-1.278-.64l-.852-.425c-.639-.213-1.065-.426-1.704-.64l-.852-.425c-.639-.213-1.064-.426-1.703-.64l-.853-.425c-.638-.213-1.064-.426-1.703-.64l-.852-.425c-.639-.213-1.065-.426-1.704-.64l-.852-.425c-.64-.213-1.065-.426-1.704-.64l-.852-.425c-.639-.213-1.065-.426-1.704-.64l-.852-.425c-.639-.213-1.065-.426-1.704-.64l-.852-.425c-.639-.213-1.278-.426-1.917-.639l-.852-.426c-.639-.213-1.278-.426-1.917-.639l-.852-.426c-.639-.213-1.278-.426-1.917-.639l-.852-.426c-.639-.213-1.278-.426-1.917-.639-.639-.213-1.278-.426-1.917-.639l-.852-.426c-.64-.213-1.278-.426-1.917-.639-.64-.213-1.278-.426-1.917-.639l-.852-.426c-.64-.213-1.278-.426-1.917-.639-.64-.213-1.278-.426-1.917-.639l-.852-.426c-.64-.213-1.278-.426-1.918-.639-.638-.213-1.277-.426-1.916-.639-.64-.213-1.278-.426-1.917-.639-.64-.213-1.278-.426-1.917-.639-.64-.213-1.278-.426-1.917-.639-.64-.213-1.278-.426-1.917-.639-.64-.213-1.278-.426-1.917-.639-.64-.213-1.278-.426-1.917-.639-.64-.213-1.278-.426-1.917-.639-.64-.213-1.278-.426-1.918-.639-.639-.213-1.277-.426-1.916-.639-.64-.213-1.491-.426-2.13-.639l-.426-.212c-.639-.213-1.491-.426-2.13-.64-.638-.212-1.49-.425-2.128-.638-.64-.213-1.491-.426-2.13-.639-.64-.213-1.492-.426-2.13-.639-.64-.213-1.492-.426-2.13-.639-.64-.213-1.492-.426-2.13-.639-.64-.213-1.492-.426-2.13-.639-.64-.213-1.492-.426-2.131-.639-.638-.213-1.49-.426-2.13-.639-.638-.213-1.49-.426-2.128-.639-.64-.213-1.704-.426-2.344-.639-.638-.213-1.49-.426-2.128-.639-.64-.213-1.704-.426-2.344-.639-.638-.213-1.703-.426-2.343-.639-.64-.213-1.704-.426-2.343-.639-.64-.213-1.704-.426-2.343-.639-.64-.213-1.704-.426-2.344-.639-.638-.213-1.703-.426-2.343-.639-.64-.213-1.704-.426-2.343-.639-.64-.213-1.704-.426-2.343-.639-.64-.213-1.917-.426-2.556-.639-.64-.213-1.917-.426-2.556-.639-.64-.213-1.918-.426-2.557-.639-.639-.213-1.916-.426-2.556-.639-.64-.213-1.917-.426-2.556-.639-.64-.213-1.917-.426-2.556-.639-.64-.213-1.917-.426-2.557-.639-.639-.213-1.916-.426-2.556-.639-.64-.213-1.917-.426-2.556-.639l-.64-.213c-.851-.213-1.916-.426-2.769-.639-.852-.213-2.13-.426-2.982-.639-.852-.213-2.13-.426-2.982-.639-.852-.213-2.13-.426-2.982-.639-.852-.213-2.13-.426-2.982-.639-.853-.213-2.13-.426-2.982-.639-.852-.213-2.13-.426-2.982-.639-.852-.213-2.343-.426-3.195-.639-.852-.213-2.343-.426-3.194-.639-.853-.213-2.343-.426-3.195-.639-.852-.213-2.343-.426-3.194-.639-.853-.213-2.343-.426-3.195-.639-.852-.213-2.556-.426-3.407-.639-.852-.213-2.556-.426-3.408-.639-.852-.213-2.556-.426-3.407-.639-.852-.213-2.769-.426-3.62-.639-.852-.213-2.77-.426-3.621-.639l-3.62-.639c-.853-.213-2.77-.426-3.621-.639-.852-.213-2.982-.426-3.834-.639-.852-.213-2.982-.426-3.833-.639-.853-.213-2.982-.426-3.834-.639-.852-.213-3.195-.426-4.046-.639-.852-.213-3.195-.426-4.047-.639-.852-.213-3.195-.426-4.046-.639-.852-.213-3.408-.426-4.26-.639-.852-.213-3.407-.426-4.26-.638-.851-.213-3.62-.426-4.472-.64-.852-.212-3.62-.425-4.472-.638-.852-.213-3.834-.426-4.686-.64-.851-.212-4.046-.425-4.898-.638-.852-.213-4.26-.426-5.111-.64-.852-.212-4.686-.425-5.538-.638-.852-.213-5.324-.426-6.39-.64l-23.438-3.194c-6.39-.852-12.994-1.278-19.598-1.704-1.704-.213-3.621-.213-5.325-.426L128.75 0H128c-1.917 0-3.834.213-5.751.213-6.603.213-13.42.639-20.024 1.491l-2.982.426c-3.195.426-6.39.852-9.584 1.278-3.195.426-6.39 1.065-9.585 1.491l-3.407.639c-3.195.426-6.39 1.065-9.585 1.704-3.195.639-6.39 1.065-9.371 1.704l-3.408.639c-2.982.639-6.176 1.278-9.158 1.917-2.982.64-6.177 1.278-9.158 2.13l-.64.213c-2.769.639-5.324 1.278-8.094 1.917-2.769.64-5.538 1.491-8.307 2.13-.852.213-1.917.426-2.556.639-2.343.64-4.899 1.278-7.242 1.917-2.343.64-4.899 1.491-7.242 2.13-.852.213-1.704.426-2.556.852-2.13.639-4.259 1.278-6.39 1.917-2.129.639-4.258 1.278-6.39 2.13-.638.213-1.49.426-2.129.64-1.917.638-3.834 1.277-5.751 1.916-1.917.64-3.834 1.491-5.751 2.13l-2.343.852c-1.704.64-3.407 1.278-5.111 1.917-1.704.64-3.408 1.491-5.112 2.13-.851.426-1.49.639-2.343 1.065-1.49.639-3.194 1.278-4.685 1.917-1.491.64-3.195 1.491-4.686 2.13-.638.426-1.49.64-2.129 1.065-1.277.639-2.769 1.278-4.046 1.917-1.278.64-2.77 1.491-4.047 2.13-.638.426-1.49.64-1.916 1.065-1.278.639-2.556 1.278-3.62 1.917-1.065.639-2.556 1.491-3.834 2.13-.639.426-1.278.64-1.917 1.065-1.064.639-2.343 1.278-3.408 1.917-.851.639-1.916 1.278-2.981 1.917v.213l-1.918 1.278V481.62c1.917 1.278 4.686 2.982 6.603 4.047 1.704 1.065 3.408 1.917 5.325 2.769 1.277.639 2.556 1.278 3.834 1.917.638.213 1.49.639 2.129 1.065 1.704.852 3.407 1.491 5.111 2.343 1.704.852 3.62 1.491 5.325 2.343.426.213 1.064.426 1.49.64 2.343 1.064 4.686 1.916 7.03 2.768 2.342.852 4.685 1.917 7.241 2.556.852.213 1.917.639 2.769.852 2.343.852 4.898 1.704 7.242 2.556 2.342.852 4.898 1.491 7.454 2.343.852.213 1.917.426 2.556.852 2.77.852 5.324 1.704 7.881 2.343 2.556.64 5.324 1.491 7.88 2.13l2.77.852c2.768.852 5.75 1.491 8.519 2.343 2.769.852 5.75 1.278 8.52 1.917.851.213 1.703.426 2.768.64 3.195.851 6.39 1.49 9.372 2.128 2.982.64 6.177 1.279 9.158 1.918.852.212 1.917.425 2.769.638 3.407.64 6.816 1.279 10.01 1.918 3.195.638 6.603 1.064 10.01 1.49.852.214 1.917.427 2.556.64 3.834.639 7.454 1.064 11.075 1.49 3.62.427 7.454.853 11.074 1.279.852 0 1.704.213 2.557.426 4.472.426 8.945.852 13.206 1.278 3.62.213 7.242.426 10.862.64v-85.418l-.426-.213c-1.065-.639-2.13-1.278-3.408-1.704l-.426-.213c-.852-.639-1.917-1.065-2.981-1.704-.64-.213-1.065-.64-1.704-.852-.64-.426-1.065-.852-1.704-1.065-.639-.426-1.065-.64-1.704-1.065-.639-.426-1.064-.639-1.703-1.065-.426-.213-.853-.639-1.492-.852-.639-.426-1.064-.852-1.703-1.278-.426-.213-.853-.639-1.065-.852-.64-.426-1.278-.852-1.704-1.278-.426-.213-.639-.639-1.065-.852-.639-.426-1.065-.852-1.704-1.278-.426-.213-.639-.64-1.065-.852-.639-.426-1.065-.852-1.491-1.278-.426-.213-.64-.64-1.065-.852l-1.278-1.278c-.426-.213-.639-.64-1.065-.852-.426-.427-.852-.64-1.278-1.065-.426-.213-.639-.64-1.064-.852-.426-.427-.853-.64-1.279-1.065-.426-.213-.639-.64-.852-.852-.426-.427-.852-.64-1.278-1.065-.213-.213-.64-.64-.852-.852l-1.278-1.065c-.213-.213-.639-.64-.852-.852-.426-.427-.852-.64-1.278-1.065-.213-.213-.426-.64-.852-.852-.213-.214-.426-.64-.852-.853-.426-.426-.852-.638-1.278-1.064-.213-.213-.426-.64-.852-.852-.426-.426-.852-.852-1.065-1.065-.213-.213-.426-.64-.852-.852-.213-.213-.426-.64-.852-.852-.426-.426-.852-.852-1.065-1.065-.213-.213-.426-.64-.852-.852-.213-.214-.426-.64-.639-.852-.426-.427-.852-.853-1.065-1.279-.213-.212-.426-.638-.639-.851-.213-.213-.426-.64-.852-.852-.426-.427-.639-.853-1.065-1.279-.213-.212-.426-.638-.639-.851l-.639-.853c-.426-.426-.639-.852-1.065-1.278-.213-.213-.426-.64-.639-.852-.213-.214-.426-.64-.639-.853-.426-.426-.639-.852-1.065-1.278-.213-.212-.426-.638-.639-.851l-.426-.64c-.426-.425-.639-.851-1.065-1.277-.213-.213-.213-.64-.426-.852-.213-.214-.426-.64-.639-.853-.426-.426-.639-.852-.852-1.278-.213-.213-.213-.64-.426-.852l-.426-.64c-.426-.425-.639-.851-1.065-1.277-.213-.213-.213-.64-.426-.852l-.639-.853c-.213-.426-.426-.852-.852-1.278l-.426-.852-.426-.639c-.426-.426-.639-.852-.852-1.278-.213-.213-.213-.64-.426-.852l-.426-.64c-.426-.425-.639-.851-.852-1.277l-.426-.853-.426-.638c-.213-.426-.426-.852-.852-1.278-.213-.213-.213-.64-.426-.852l-.213-.64c-.426-.425-.639-.851-.852-1.277-.213-.213-.213-.64-.426-.852-.213-.214-.213-.64-.426-.853-.213-.426-.426-.852-.639-1.278-.213-.213-.213-.64-.426-.852-.213-.213-.213-.64-.213-.852-.213-.426-.426-.852-.639-1.278-.213-.213-.213-.64-.426-.852l-.213-.64c-.213-.425-.426-.851-.639-1.277l-.426-.853c0-.212-.213-.425-.213-.638-.213-.427-.426-.853-.639-1.279l-.213-.852-.213-.639c-.213-.426-.426-.852-.426-1.278-.213-.213-.213-.64-.213-.852-.213-.213-.213-.426-.213-.64-.213-.425-.426-.851-.426-1.277-.213-.213-.213-.64-.213-.852 0-.213-.213-.426-.213-.64-.213-.425-.213-.851-.426-1.277l-.213-.853c0-.212-.213-.425-.213-.638-.213-.427-.213-.853-.426-1.279 0-.212-.213-.638-.213-.851 0-.213-.213-.426-.213-.64-.213-.425-.213-.851-.426-1.277l-.213-.853c0-.212-.213-.425-.213-.638-.213-.427-.213-.853-.426-1.279 0-.212 0-.638-.213-.851 0-.213 0-.426-.213-.64-.213-.425-.213-.851-.213-1.277-.213-.213-.213-.64-.213-.853v-.638c-.213-.426-.213-.852-.213-1.278-.213-.213-.213-.64-.213-.852 0-.213 0-.427-.213-.64 0-.425-.213-.851-.213-1.277v-.852c0-.213-.213-.426-.213-.64-.213-.425-.213-.851-.213-1.277v-.852-.64c-.213-.425-.213-.851-.213-1.277v-.852c0-.213 0-.427-.213-.64v-1.277-.853c0-.212-.213-.425-.213-.638v-1.491c0-.213-.213-.426-.213-.64v-1.49-.64-.852c0-.213-.213-.639-.213-.852v-.852c0-.426.213-.639.213-1.065v-.639-.852c0-.426 0-.64.213-1.065v-.64-.851c0-.426.213-.64.213-1.065v-.64-.851c0-.426.213-.64.213-1.065v-.64c.213-.212.213-.638.213-.851.213-.426.213-.64.213-1.065l.213-.64v-.851c.213-.426.213-.64.213-1.065l.213-.64c0-.212.213-.638.213-.851.213-.426.213-.64.426-1.065v-.64c.213-.212.213-.638.213-.851.213-.426.426-.64.426-1.065l.213-.64c0-.212.213-.638.213-.851.213-.426.426-.64.426-1.065l.213-.64c0-.212.213-.638.426-.851.213-.427.426-.64.426-1.066l.213-.638c0-.213.213-.64.426-.853.213-.426.426-.638.426-1.064l.213-.64c.213-.212.213-.638.426-.851.213-.426.426-.64.639-1.065l.213-.64c.213-.212.213-.638.426-.851.213-.426.426-.64.639-1.065.213-.213.213-.426.213-.64.213-.212.426-.638.639-.851.213-.426.426-.64.639-1.065.213-.213.213-.426.426-.64.213-.212.426-.638.639-.851.213-.426.426-.64.639-1.065.213-.213.426-.426.426-.64.213-.212.426-.638.639-.851.213-.426.426-.64.639-1.065.213-.213.426-.426.426-.64.426-.212.64-.638.853-.851.213-.426.426-.64.638-1.065l.426-.64c.426-.212.64-.638.853-.851.426-.426.638-.64.851-1.065l.426-.64c.426-.212.64-.638 1.065-.851.213-.426.426-.64.852-1.065.213-.213.426-.426.426-.64.426-.212.64-.638 1.065-.851.213-.426.64-.64.852-1.065.213-.213.426-.426.64-.64.426-.212.638-.638 1.064-.851.213-.426.64-.64.853-1.065.213-.213.426-.426.638-.64.426-.212.64-.638 1.065-.851.426-.426.64-.64 1.065-1.065.213-.213.426-.426.639-.64.426-.212.639-.638 1.065-.851.426-.426.639-.64 1.065-1.065.213-.213.426-.426.639-.64.426-.212.852-.638 1.278-.851.426-.426.852-.64 1.064-1.065.213-.213.426-.426.64-.64.425-.212.85-.638 1.277-.851.426-.426.852-.64 1.065-1.065.426-.213.426-.426.639-.64.426-.212.852-.638 1.278-.851.426-.426.852-.64 1.277-1.065l.64-.64c.426-.212.852-.638 1.278-.851.426-.426.852-.64 1.278-1.065.426-.213.426-.426.639-.64.639-.212 1.065-.638 1.49-.851.427-.426.853-.64 1.279-1.065l.638-.64c.64-.212 1.066-.638 1.492-.851.426-.426.852-.64 1.49-1.065.214-.213.427-.426.64-.64.639-.212 1.065-.638 1.704-.851.426-.426.852-.64 1.49-1.065.214-.213.427-.426.64-.64.639-.212 1.278-.638 1.704-.851.639-.426.852-.64 1.49-1.065l.64-.64c.638-.212 1.277-.638 1.916-.851.639-.426 1.065-.64 1.491-1.065l.639-.64c.64-.212 1.278-.638 1.917-.851.64-.426 1.065-.64 1.704-1.065.213-.213.426-.426.639-.64.852-.212 1.491-.638 2.13-.851.639-.426 1.277-.64 1.703-1.065.213-.213.426-.426.64-.64.851-.212 1.49-.638 2.342-.851.64-.426 1.278-.64 1.918-1.065.212-.213.425-.426.638-.64.852-.212 1.704-.638 2.343-.851.852-.426 1.491-.64 2.13-1.065.213-.213.426-.426.639-.64.852-.212 1.704-.638 2.556-.851.639-.426 1.491-.64 2.13-1.065.213-.213.426-.426.639-.64.852-.212 1.917-.638 2.769-.851.852-.426 1.491-.64 2.343-1.065.213-.213.426-.426.639-.64.852-.212 1.917-.638 2.982-.851.852-.426 1.704-.64 2.556-1.065.213-.213.426-.426.64-.64 1.064-.212 1.916-.638 2.981-.851.852-.426 1.917-.64 2.769-1.065.213-.213.426-.426.639-.64.852-.212 1.917-.638 2.982-.851 1.064-.426 1.916-.64 2.981-1.065.213-.213.426-.426.64-.64 1.064-.212 2.129-.638 3.194-.851 1.064-.426 2.13-.64 3.195-1.065l.638-.64c1.065-.212 2.13-.638 3.195-.851 1.065-.426 2.343-.64 3.408-1.065l.638-.64c1.278-.212 2.343-.638 3.408-.851 1.064-.426 2.343-.64 3.407-1.065l.639-.64c1.278-.212 2.556-.638 3.62-.851 1.278-.426 2.556-.64 3.834-1.065l.639-.64c1.49-.212 2.769-.638 4.046-.851 1.278-.426 2.77-.64 4.047-1.065l.639-.64c1.49-.212 3.194-.638 4.686-.851 1.49-.426 3.194-.64 4.685-1.065l.64-.64c1.703-.212 3.407-.638 5.111-.851 1.704-.426 3.62-.64 5.325-1.065l.638-.64c2.13-.212 4.047-.638 6.177-.851 1.704-.426 3.62-.64 5.538-.852l.638-.639c2.557-.213 4.9-.64 7.456-.852 2.556-.213 5.11-.64 7.667-.852l-.213-.852c3.195-.213 6.39-.64 9.585-.852 3.195-.213 6.603-.426 9.798-.852h.426c5.111-.426 10.222-.852 15.12-.852h3.195c5.538 0 10.862-.213 16.4-.213h1.917c5.112.213 10.223.213 15.121.639h.639c5.537.426 10.862.852 16.4 1.491l.638.213c4.686.639 9.372 1.278 14.058 2.13l.852.213c4.472.852 8.945 1.704 13.205 2.556l1.065.213c4.26.852 8.52 1.917 12.567 2.982l1.277.426c3.834 1.065 7.668 2.343 11.501 3.408l1.278.426c3.62 1.278 7.455 2.556 11.075 3.834.426.213.852.426 1.278.426 3.407 1.278 6.815 2.769 10.222 4.047.426.213.852.426 1.278.639 3.195 1.491 6.603 2.982 9.798 4.473.426.213.852.426 1.278.639 3.195 1.491 6.176 3.195 9.371 4.899.213.213.639.426.852.639 2.982 1.704 5.964 3.408 8.945 5.325l.64.426c2.981 1.917 5.75 3.834 8.519 5.751l.426.426c2.769 2.13 5.537 4.26 8.093 6.39l.213.213c2.556 2.13 4.899 4.472 7.242 6.816v.213c2.343 2.343 4.473 4.686 6.603 7.029l.213.213c2.13 2.556 4.047 5.112 6.177 7.668 1.917 2.556 3.834 5.112 5.751 7.881v.213c1.704 2.556 3.195 5.324 4.899 7.88l.213.427c1.49 2.556 2.982 5.112 4.26 7.667l.212.426c1.278 2.556 2.556 5.112 3.621 7.668l.213.426c1.065 2.556 2.13 5.112 3.194 7.668v.426c.853 2.556 1.918 5.112 2.557 7.668l.213.426c.851 2.769 1.49 5.325 2.129 7.881v.213c.64 2.769 1.065 5.325 1.491 8.094v.426c.426 2.556.64 5.112.853 7.881v.639c.212 2.556.425 5.112.425 7.88l.213.64c0 2.982 0 5.75-.213 8.732v.64c-.213 2.768-.426 5.537-.639 8.306v.852c-.426 2.556-.852 5.325-1.491 7.881-.213.426-.213.852-.213 1.278-.64 2.556-1.065 5.112-1.917 7.668l-.213.852c-.639 2.343-1.491 4.685-2.13 7.029-.212.425-.212.851-.425 1.277-.852 2.343-1.491 4.686-2.343 7.029l-.213.426c-.852 2.343-1.917 4.472-2.769 6.815-.213.427-.426 1.066-.639 1.492-.852 1.917-1.704 3.834-2.556 5.75v.214c-.852 1.917-1.917 3.62-2.769 5.538l-.64 1.064c-.851 1.704-1.916 3.408-2.768 5.112v.213c-.853 1.49-1.917 3.194-2.77 4.685l-.638 1.065c-.852 1.49-1.917 2.982-2.77 4.472l-.425.64c-.852 1.49-1.917 2.769-2.77 4.259-.212.426-.638.851-.851 1.277-.852 1.278-1.704 2.556-2.557 3.834-.426.426-.638.852-1.064 1.278-.853 1.065-1.704 2.343-2.557 3.407-.426.64-.852 1.066-1.278 1.492-.852 1.064-1.704 2.129-2.556 3.194-.426.639-.852 1.064-1.278 1.49-.852 1.066-1.917 2.13-2.769 3.195-.426.426-.852 1.065-1.278 1.491-.852.852-1.704 1.704-2.556 2.556l-1.278 1.278c-.852.852-1.704 1.704-2.769 2.556-.426.426-.852.852-1.278 1.278-.852.852-1.917 1.704-2.769 2.556-.426.426-.852.852-1.49 1.065-.853.852-1.918 1.704-2.77 2.556-.426.426-.852.853-1.278 1.066-.852.638-1.917 1.49-2.769 2.342-.426.213-.852.64-1.49.853-.853.851-1.918 1.49-2.77 2.342l-1.277.852c-.853.639-1.917 1.278-2.77 2.13l-1.277.851c-.853.64-1.918 1.279-2.77 2.13-.425.213-.851.64-1.49.853-.852.639-1.917 1.278-2.77 1.917l-1.277.852c-.852.639-1.917 1.278-2.769 1.917-.426.213-.852.639-1.278.852-.852.639-1.917 1.065-2.769 1.704-.426.213-.852.639-1.491.852-.852.639-1.917 1.065-2.769 1.704-.426.213-.852.639-1.278.852-.852.426-1.917 1.065-2.769 1.491-.426.213-.852.64-1.49.852l-2.77 1.491c-.426.214-.851.64-1.277.853-.852.426-1.917.852-2.77 1.49-.425.214-.851.427-1.49.64-.852.426-1.917.852-2.77 1.491-.425.213-.851.426-1.277.639-.852.426-1.917.852-2.769 1.278-.426.213-.852.426-1.491.639-.852.426-1.917.852-2.769 1.278-.426.213-.852.426-1.491.639l-2.769 1.278c-.426.213-.852.426-1.491.639l-2.769 1.065c-.426.213-.852.426-1.49.64l-2.77 1.064c-.426.213-.851.426-1.49.64l-2.77 1.064c-.426.213-.851.426-1.49.64l-2.77.851c-.426.213-.851.426-1.49.64-.853.212-1.918.638-2.77.851l-1.49.64c-.853.212-1.918.638-2.77.851-.426.213-.851.426-1.49.64-.853.212-1.918.638-2.77.851-.426.213-.851.426-1.49.64-.853.212-1.918.425-2.77.851l-1.49.64c-.853.212-1.918.425-2.77.851l-1.49.426c-.853.214-1.918.426-2.77.64l-1.49.425c-.853.213-1.918.426-2.77.64l-1.49.425c-.853.213-1.918.426-2.77.64l-1.49.425c-.853.213-1.918.426-2.77.64-.426.212-.851.212-1.277.425-.853.213-1.918.426-2.77.64l-1.49.425c-.853.213-1.918.426-2.983.64l-1.277.425-.213.213v87.761z"/>
</svg>

