<svg xmlns="http://www.w3.org/2000/svg" viewBox="0 0 256 252">
  <path fill="#00546B" d="M236.973 194.161c-10.408-.612-18.381 1.005-25.141 4.02-1.924.864-4.989.891-5.277 3.289.999 1.088 1.134 2.755 1.962 4.127 1.548 2.642 4.236 6.163 6.663 8.034 2.661 2.06 5.363 4.233 8.239 6.034 5.087 3.174 10.788 5.002 15.67 8.143 2.884 1.857 5.758 4.239 8.555 6.357 1.382 1.043 2.298 2.695 4.021 3.395v-.431c-.909-1.196-1.151-2.846-1.963-4.235-1.233-1.219-2.475-2.324-3.718-3.503-3.629-4.798-8.129-9.033-13.06-12.48-3.939-2.751-12.771-6.482-14.41-11.021l-.324-.217c2.809-.324 6.089-1.36 8.775-2.178 4.396-1.187 8.324-1.037 12.854-2.18 2.073-.539 4.128-1.188 6.2-1.853v-1.188c-2.344-2.398-4.015-5.593-6.526-7.819-6.61-5.856-13.829-11.699-21.25-16.606-4.04-2.668-9.14-4.392-13.47-6.665-1.471-.779-4.02-1.179-5.003-2.394-2.315-2.93-3.557-6.656-5.31-10.028-3.682-7.08-7.284-14.833-10.556-22.271-2.239-5.085-3.667-10.111-6.526-14.697-13.713-21.98-28.521-35.25-51.382-48.336-4.851-2.785-10.685-3.882-16.85-5.329l-9.852-.536c-2.034-.87-4.12-3.413-5.959-4.656C90.178 54.47 62.9 34.46 52.68 62.93c-6.448 17.976-4.817 36.946-7.69 55.053-1.776.509-1.021.145-2.074.755-4.99-5.378-8.03-12.482-12.2-18.656-5.252-7.776-10.311-16.984-14.196-25.787-2.662-6.02-4.406-12.755-7.58-18.118-30.098 32.083-42.518 76.593-44.113 122.161 1.198 0 .36 0 .969.324 2.852-7.221 9.946-12.03 15.239-17.48 4.073-4.165 8.818-9.123 13.631-12.373v.432c-2.155 4.871-3.404 10.259-5.742 15.239-4.423 9.435-9.477 18.604-14.086 27.75-4.354 8.643-7.309 17.423-12.632 25.464 3.453 2.479 7.447 9.02 11.99 11.879 4.972 3.129 11.106 4.984 16.633 7.366.953.411 2.556.7 3.076 1.437 1.962 2.829 2.416 6.44 3.935 9.608 3.34 6.964 6.598 14.503 10.449 21.095 1.996 3.411 4.077 6.984 6.528 9.933 1.462 1.757 3.975 2.533 4.555 5.216-2.563 3.597-2.729 8.152-4.127 12.26-6.322 18.552-3.919 41.55 5.22 55.249 2.802 4.196 9.464 13.255 18.439 9.824 7.854-3.007 6.109-12.313 8.35-20.588 .509-1.895.189-3.287 1.079-4.66v.431c2.181 4.343 4.343 8.56 6.417 12.907 4.803 7.653 13.227 15.621 20.263 20.914 3.643 2.738 6.537 7.499 11.127 9.063v-.537h-.322c-.889-1.406-2.322-1.972-3.503-3.073-2.808-2.686-5.911-6.013-8.239-8.991-6.556-8.377-12.365-17.52-17.584-27.104-2.509-4.612-4.695-9.684-6.74-14.375-1.72-3.956-1.737-8.005-4.02-11.127-5.805 8.67-14.433 15.623-18.442 26.179-2.426 6.389-2.895 14.195-4.127 21.963-.609.108-.324 0-.539.431-5.548-1.366-7.473-7.237-9.602-12.154-5.413-12.503-6.363-32.636-1.641-47.14 1.214-3.724 6.754-15.443 4.557-18.977-1.074-3.569-4.645-5.631-6.631-8.455-2.438-3.49-4.858-8.086-6.525-11.987-4.319-10.111-6.328-21.452-10.879-31.741-.217.108-.431.217-.647.432 2.125 3.07 2.802 7.241 4.235 10.88 3.397 8.685 6.509 18.127 10.772 26.179 2.074 3.918 7.69 12.327 6.204 16.847l-3.612 3.827c-2.338 3.727-8.625 7.533-11.663 10.127-8.466 7.223-15.484 15.599-21.959 24.597-.54.753-1.31 1.936-1.857 2.611l.217.217"/>
  <path fill="#00758F" d="M57.669 59.878c-3.086.1-5.277.541-7.584 1.295v.648c1.505 3.08 4.153 5.086 5.959 8.027 1.406 2.934 2.703 5.866 4.127 8.778.108-.108.324-.109.43-.217 2.587-1.818 3.766-4.716 3.611-8.886-.997-1.045-1.152-2.397-1.963-3.502-1.089-1.589-3.18-2.482-4.58-3.826"/>
</svg>

