<svg xmlns="http://www.w3.org/2000/svg" viewBox="0 0 256 289">
  <path fill="#539E43" d="M128 288.464c-3.975 0-7.685-1.06-11.13-2.915l-35.247-20.936c-5.3-2.915-2.65-3.975-1.06-4.505 7.155-2.385 8.48-2.915 15.9-7.156.795-.53 1.855-.265 2.65.265l27.032 16.166c1.06.53 2.385.53 3.18 0l105.74-61.217c1.06-.53 1.59-1.59 1.59-2.915V83.078c0-1.325-.53-2.385-1.59-2.915l-105.74-60.953c-1.06-.53-2.385-.53-3.18 0L20.705 80.163c-1.06.53-1.59 1.855-1.59 2.915v122.17c0 1.06.53 2.385 1.59 2.915l28.887 16.695c15.636 7.95 25.441-1.325 25.441-10.6V93.413c0-1.59 1.325-3.18 3.18-3.18h13.516c1.59 0 3.18 1.325 3.18 3.18v120.58c0 20.936-11.395 33.126-31.27 33.126-6.095 0-10.865 0-24.38-6.625l-27.827-15.9C4.24 220.614 0 213.723 0 206.302V84.133c0-7.42 4.24-14.311 11.13-18.021L116.87 4.631c6.625-3.71 15.635-3.71 22.26 0l105.74 61.217c6.89 3.975 11.13 10.6 11.13 18.02v122.17c0 7.42-4.24 14.311-11.13 18.021L139.13 285.549c-3.445 1.854-7.42 2.915-11.13 2.915z"/>
  <path fill="#539E43" d="M159.903 204.447c-46.138 0-55.942-21.201-55.942-39.222 0-1.59 1.325-3.18 3.18-3.18h13.78c1.59 0 2.916 1.06 2.916 2.65 2.12 14.046 8.215 20.936 36.306 20.936 22.26 0 31.8-5.035 31.8-16.96 0-6.891-2.65-11.926-37.365-15.371-28.887-2.915-46.933-9.276-46.933-32.33 0-21.466 18.046-34.186 48.257-34.186 33.92 0 50.616 11.66 52.736 37.1 0 .796-.265 1.59-.795 2.385-.53.53-1.325 1.06-2.12 1.06h-13.78c-1.325 0-2.65-1.06-2.915-2.385-3.18-14.576-11.395-19.346-33.126-19.346-24.38 0-27.296 8.48-27.296 14.84 0 7.686 3.445 10.07 36.306 14.311 32.595 4.24 47.992 10.336 47.992 33.126-.265 23.321-19.346 36.572-53.001 36.572z"/>
</svg>

