<svg xmlns="http://www.w3.org/2000/svg" viewBox="0 0 256 264">
  <path d="M255.008 158.086c-1.535-4.649-5.556-7.887-10.756-8.664-2.452-.366-5.26-.21-8.583.475-5.792 1.195-10.089 1.65-13.225 1.738 11.837-19.985 21.462-42.775 27.003-64.228 8.96-34.689 4.172-50.492-1.423-57.64C233.217 10.847 211.614.683 185.552.372c-13.903-.17-26.108 2.575-32.475 4.549-5.928-1.046-12.302-1.63-18.99-1.738-12.537-.2-23.614 2.533-33.079 8.15-5.24-1.772-13.65-4.27-23.362-5.864-22.842-3.75-41.252-.828-54.718 8.685C6.622 25.672-.937 45.684.461 73.634c.444 8.874 5.408 35.874 13.224 61.48 4.492 14.718 9.282 26.94 14.237 36.33 7.027 13.315 14.546 21.156 22.987 23.972 4.731 1.576 13.327 2.68 22.368-4.85 1.146 1.388 2.675 2.767 4.704 4.048 2.577 1.625 5.728 2.953 8.875 3.74 11.341 2.835 21.964 2.126 31.027-1.96.056 1.965.192 3.783.394 5.097.655 4.252 2.017 8.227 4.384 10.653 2.985 3.06 6.487 4.564 10.066 4.564 1.724 0 3.469-.298 5.205-.896 18.551-6.387 25.878-17.01 26.999-22.148.093-.426.16-.853.225-1.282 8.352-.327 15.319-1.925 20.967-4.49l.018-.01c5.438-2.472 9.628-5.872 12.442-10.084 4.628-6.94 4.406-13.41 4.186-16.857-.052-.825-.1-1.597-.1-2.132 0-.26.007-.509.013-.725.076-2.732.203-7.3-2.48-12.266a42.104 42.104 0 0 0-1.715-2.869c1.678.024 3.537-.056 5.591-.227 4.653-.385 10.214-1.21 14.994-3.093 5.166-2.032 10.489-5.467 12.617-11.916z" fill="#336791"/>
  <path d="M237.906 160.722c-29.74 6.135-31.785-3.934-31.785-3.934 31.4-46.593 44.527-105.736 33.2-120.211-30.904-39.485-84.399-20.811-85.292-20.327l-.287.052c-5.876-1.22-12.451-1.946-19.842-2.067-13.456-.221-23.664 3.528-31.41 9.402 0 0-95.43-39.314-90.991 49.444.944 18.882 27.064 142.873 58.218 105.422 11.387-13.695 22.39-25.274 22.39-25.274 5.464 3.63 12.006 5.482 18.864 4.817l.533-.452c-.166 1.7-.09 3.363.213 5.332-8.026 8.967-5.667 10.541-21.711 13.844-16.235 3.346-6.698 9.302-.471 10.86 7.549 1.888 25.013 4.561 36.813-11.958l-.47 1.885c3.144 2.519 5.352 16.383 4.982 28.952-.37 12.568-.617 21.197 1.86 27.937 2.479 6.74 4.948 21.905 26.04 17.386 17.623-3.777 26.756-13.564 28.027-29.89.901-11.606 2.942-9.89 3.07-20.267l1.637-4.912c1.887-15.733.3-20.809 11.157-18.448l2.64.232c7.99.363 18.45-1.286 24.589-4.139 13.218-6.134 21.058-16.377 8.024-13.686z" fill="#fff"/>
  <path d="M108.076 81.525c-2.68-.373-5.107-.028-6.335.902-.69.523-.904 1.129-.962 1.546-.154 1.105.62 2.327 1.096 2.957 1.346 1.784 3.312 3.01 5.258 3.28.282.04.563.058.842.058 3.245 0 6.196-2.527 6.456-4.392.325-2.336-3.066-3.893-6.355-4.351z" fill="#336791"/>
  <path d="M196.86 81.599c-.256-1.831-3.514-2.353-6.606-1.923-3.088.43-6.082 1.804-5.826 3.636.264 1.894 3.368 4.591 6.75 4.591.262 0 .527-.017.79-.054 2.036-.282 3.886-1.619 5.119-3.432.39-.574.912-1.678.773-2.818z" fill="#336791"/>
</svg>

