<svg xmlns="http://www.w3.org/2000/svg" viewBox="0 0 256 274">
  <path d="M145.726 42.065v42.07l72.861 42.07v-42.07l-72.86-42.07zM0 84.135v42.07l36.43 21.03V105.17L0 84.136zm109.291 21.035l-36.43 21.035v126.21l36.43 21.04V189.39l36.435-21.035v-42.07l-36.435 21.035v-42.15zm36.435 63.11v42.065l36.43 21.04v-42.07l-36.43-21.035z" fill="#E55B2D"/>
  <path d="M145.726 42.065L36.43 105.17v42.065l72.861-42.07V63.1l36.435-21.035zm36.435 84.14v42.065l-36.435 21.035v42.07l72.861-42.07v-84.135l-36.426 21.035zM255.996 63.1l-36.43 21.035v42.07L255.997 105.17V63.1z" fill="#ED8E24"/>
  <path d="M219.571 84.135v42.07l36.43-21.035V63.1l-36.43 21.035zm-36.43-42.07l-36.436 21.035 36.435 21.035 36.43-21.035-36.43-21.035zM72.856 147.24L36.43 168.27v42.07l36.426-21.04v-42.065zm36.435-63.105L72.856 63.1l-36.43 21.035 36.43 21.035 36.435-21.035z" fill="#F8BF3C"/>
</svg>

